# xmcd
#
# Track frame offsets:
#	150
#	16415
#	33532
#	46612
#	60706
#	74105
#	89224
#	101231
#	118117
#	129719
#	141792
#	158777
#	178088
#	193955
#	208935
#	225736
#
# Disc length: 3244 seconds
#
# Revision: 1
# Processed by: cddbd v1.5.2PL0 Copyright (c) Steve Scherf et al.
# Submitted via: EZCDAudioConverter 1.3.4.1
#
DISCID=fb0caa10
DTITLE=Billy Yates - Only One George Jones
DYEAR=2013
DGENRE=Country
TTITLE0=Billy Yates - Only One George Jones
TTITLE1=Billy Yates - I Learned A Lot
TTITLE2=Billy Yates - The House That Jack Built
TTITLE3=Billy Yates - The Man I Used To Be
TTITLE4=Billy Yates - She Ain't Got Nobody
TTITLE5=Billy Yates - As I Kiss My World Goodbye
TTITLE6=Billy Yates - Til The Old Wears Off
TTITLE7=Billy Yates - The Shoulder
TTITLE8=Billy Yates - It Wasn't That Funny
TTITLE9=Billy Yates - I'm A One Band Man
TTITLE10=Billy Yates - Chill My Beer
TTITLE11=Billy Yates - The Father And The Son
TTITLE12=Billy Yates - Sad Songs
TTITLE13=Billy Yates - A Country Boy Just Don't Care
TTITLE14=Billy Yates - That's Your Memory On My Mind
TTITLE15=Choices with George Jones
EXTD=
EXTT0=
EXTT1=
EXTT2=
EXTT3=
EXTT4=
EXTT5=
EXTT6=
EXTT7=
EXTT8=
EXTT9=
EXTT10=
EXTT11=
EXTT12=
EXTT13=
EXTT14=
EXTT15=
PLAYORDER=
